<svg width="296.096" height="296.096" xmlns="http://www.w3.org/2000/svg">

 <g>
  <title>Layer 1</title>
  <g id="svg_1">
   <path fill="#ffffff" id="svg_2" d="m101.15,174.142c6.966,0 14.634,0.68 21.634,1.966l0,-20.969l51,0l0,37.424c6,2.203 10.381,4.579 14.494,7.567c7.797,5.664 12.082,13.099 12.339,21.254c9.925,-2.345 19.028,-6.321 26.905,-11.737c2.846,-1.956 6.262,-3.668 8.262,-5.137l0,-58.243l-87.737,-98.037l-89.263,98.628l0,35.247c6,-1.521 11.468,-3.156 17.806,-4.884c7.496,-2.043 15.815,-3.079 24.56,-3.079z"/>
   <polygon fill="#ffffff" id="svg_3" points="148.4459991455078,24.312999725341797 247.6300048828125,135.13900756835938 270.2510070800781,135.13900756835938 148.2469940185547,-1 97.78399658203125,54.571998596191406 97.78399658203125,32.138999938964844 60.784000396728516,32.138999938964844 60.784000396728516,95.4540023803711 25.201000213623047,135.13900756835938 48.14400100708008,135.13900756835938 "/>
   <path fill="#ffffff" id="svg_4" d="m259.083,213.931c-5.494,0 -12.89,2.44 -22.289,8.901c-17.182,11.811 -38.215,17.012 -57.433,17.012c-15.623,0 -30.045,-3.435 -40.23,-9.546c-5.046,-3.028 -5.031,-4.039 -2.104,-4.039c5.878,0 23.504,4.079 35.449,4.079c5.878,0 10.379,-0.987 11.432,-3.934c4.867,-13.628 -14.001,-18.016 -33.73,-26c-14.444,-5.848 -32.073,-10.262 -48.861,-10.263c-6.999,0 -13.914,0.767 -20.332,2.517c-29.141,7.945 -50.199,13.93 -56.199,15.873l0,76.48c12,-4.413 25.9,-8.642 33.81,-8.642c14.516,0 73.253,18.726 106.51,18.726c4.658,0 8.829,-0.367 12.298,-1.204c28.227,-6.814 77.232,-46.725 90.533,-60.351c6.386,-6.542 3.86,-19.609 -8.854,-19.609z"/>
  </g>
  <g id="svg_5"/>
  <g id="svg_6"/>
  <g id="svg_7"/>
  <g id="svg_8"/>
  <g id="svg_9"/>
  <g id="svg_10"/>
  <g id="svg_11"/>
  <g id="svg_12"/>
  <g id="svg_13"/>
  <g id="svg_14"/>
  <g id="svg_15"/>
  <g id="svg_16"/>
  <g id="svg_17"/>
  <g id="svg_18"/>
  <g id="svg_19"/>
 </g>
</svg>